<svg width="161" height="63" fill="none" xmlns="http://www.w3.org/2000/svg"><mask id="a" maskUnits="userSpaceOnUse" x="0" y="0" width="37" height="42"><path fill-rule="evenodd" clip-rule="evenodd" d="M0 .042h36.243v41.335H0V.041z" fill="#fff"/></mask><g mask="url(#a)"><path fill-rule="evenodd" clip-rule="evenodd" d="M.323 7.19l23.55 13.529L.409 34.19c-.468.3-.404.775-.404.775l.042 6.017s.116.635.693.294l35.229-20.16s.275-.147.275-.399-.276-.394-.276-.394L.761.152C-.167-.311.046.83.046.83L.004 6.387s-.067.618.319.804z" fill="#FFD200"/></g><path fill-rule="evenodd" clip-rule="evenodd" d="M59.376 22.892c.408-.465.613-1.15.613-2.055 0-.905-.205-1.59-.613-2.056-.41-.46-1.012-.69-1.809-.69h-1.104v5.498h1.104c.802 0 1.405-.232 1.809-.697zm2.108-4.525c.342.7.513 1.524.513 2.47 0 .945-.171 1.766-.514 2.461a3.487 3.487 0 0 1-1.463 1.557c-.639.358-1.405.537-2.3.537h-2.912a.25.25 0 0 1-.184-.077.25.25 0 0 1-.076-.184V16.55a.25.25 0 0 1 .076-.184.25.25 0 0 1 .184-.077h2.913c.889 0 1.655.176 2.299.53a3.492 3.492 0 0 1 1.463 1.548zm7.733-.296v1.744h3.031c.072 0 .134.025.186.077a.251.251 0 0 1 .077.184v1.26a.25.25 0 0 1-.077.184.254.254 0 0 1-.186.077h-3.031v2.012h4.292c.072 0 .134.026.185.077a.25.25 0 0 1 .078.185v1.26a.25.25 0 0 1-.078.184.254.254 0 0 1-.185.077h-5.963a.252.252 0 0 1-.185-.077.25.25 0 0 1-.077-.184v-8.58a.25.25 0 0 1 .077-.185.253.253 0 0 1 .184-.077h5.964c.072 0 .134.026.185.077a.25.25 0 0 1 .078.184v1.26a.25.25 0 0 1-.078.184.254.254 0 0 1-.185.077h-4.292zm13.719 7.669l-4.804-9.124c-.037-.067-.044-.12-.023-.158a.256.256 0 0 1 .094-.096.524.524 0 0 1 .165-.054l1.54-.015a.398.398 0 0 1 .111 0 .64.64 0 0 1 .098.042.27.27 0 0 1 .099.111l2.916 5.835 2.933-5.82a.258.258 0 0 1 .098-.118.316.316 0 0 1 .106-.043.27.27 0 0 1 .11.008h1.604c.053.02.097.046.134.077a.208.208 0 0 1 .067.108c.013.046.004.1-.028.161l-4.835 9.086a.248.248 0 0 1-.047.062.384.384 0 0 1-.06.046.147.147 0 0 1-.082.023v-.023.023a.162.162 0 0 1-.09-.023.384.384 0 0 1-.059-.046.243.243 0 0 1-.047-.062zm-20.96 17.546a.255.255 0 0 1 .004.19c-.023.055-.08.106-.169.153a6.64 6.64 0 0 1-.913.343c-.284.089-.62.168-1.008.238a7.16 7.16 0 0 1-1.268.106c-.866 0-1.624-.195-2.275-.586-.646-.39-1.15-.946-1.512-1.67-.352-.717-.528-1.568-.528-2.55 0-.984.176-1.834.528-2.552.362-.718.866-1.272 1.512-1.662a3.72 3.72 0 0 1 1.055-.43 5.241 5.241 0 0 1 1.212-.132 7.25 7.25 0 0 1 1.587.172 10.66 10.66 0 0 1 1.61.507c.073.026.126.07.157.132.032.063.034.13.008.203l-.425 1.21a.266.266 0 0 1-.134.156.253.253 0 0 1-.204.008 17.32 17.32 0 0 0-.599-.203 18.28 18.28 0 0 0-.716-.227 5.413 5.413 0 0 0-1.205-.132c-.74 0-1.312.252-1.716.756-.405.5-.607 1.23-.607 2.193 0 .968.202 1.701.607 2.2.409.505.981.757 1.716.757.215 0 .422-.01.622-.03a4.246 4.246 0 0 0 .913-.196l.441-.14c.174-.058.352-.12.536-.188a.264.264 0 0 1 .346.164l.425 1.21zm12.438-8.236a.248.248 0 0 1 .079.184v8.581a.248.248 0 0 1-.079.184.26.26 0 0 1-.189.077h-1.43a.26.26 0 0 1-.188-.077.247.247 0 0 1-.079-.184v-3.558h-3.52v3.558a.248.248 0 0 1-.079.184.26.26 0 0 1-.188.077h-1.43a.26.26 0 0 1-.19-.077.247.247 0 0 1-.078-.184v-8.58c0-.072.026-.134.079-.185a.26.26 0 0 1 .188-.077h1.43a.26.26 0 0 1 .19.077.248.248 0 0 1 .078.184v3.298h3.52v-3.298c0-.072.026-.133.079-.184a.26.26 0 0 1 .188-.077h1.43a.26.26 0 0 1 .189.077zm9.946 5.464l-1.227-2.437-1.219 2.437h2.445zm3.796 3.19c.032.067.04.123.028.17a.207.207 0 0 1-.067.107.471.471 0 0 1-.134.077H86.38a.266.266 0 0 1-.11.008.317.317 0 0 1-.106-.043.257.257 0 0 1-.098-.119l-.794-1.568H81.01l-.794 1.584a.302.302 0 0 1-.099.115.28.28 0 0 1-.098.039.267.267 0 0 1-.11-.008l-1.541-.008a.517.517 0 0 1-.165-.054.255.255 0 0 1-.094-.096c-.021-.038-.014-.09.023-.157l4.804-9.126c.01-.02.026-.04.047-.062a.238.238 0 0 1 .15-.069v.023-.023a.227.227 0 0 1 .14.07.25.25 0 0 1 .048.061l4.835 9.08zm10.769-1.384a.258.258 0 0 1 .078.192v1.303a.248.248 0 0 1-.078.184.259.259 0 0 1-.188.077H92.54a.258.258 0 0 1-.188-.077.248.248 0 0 1-.078-.184v-8.58a.25.25 0 0 1 .078-.185.26.26 0 0 1 .188-.077h1.425a.26.26 0 0 1 .189.077.249.249 0 0 1 .078.184v7.01h4.504a.26.26 0 0 1 .188.076zm12.495 0a.259.259 0 0 1 .079.192v1.303a.25.25 0 0 1-.079.184.258.258 0 0 1-.188.077h-6.196a.26.26 0 0 1-.188-.077.248.248 0 0 1-.078-.184v-8.58a.25.25 0 0 1 .078-.185.261.261 0 0 1 .188-.077h1.426a.26.26 0 0 1 .188.077.25.25 0 0 1 .078.184v7.01h4.504a.26.26 0 0 1 .188.076zm7.539-5.565V38.5h3.031c.072 0 .134.026.186.077a.253.253 0 0 1 .077.184v1.26a.252.252 0 0 1-.077.184.256.256 0 0 1-.186.077h-3.031v2.013h4.292c.072 0 .134.026.185.077a.249.249 0 0 1 .077.184v1.26a.249.249 0 0 1-.077.184.252.252 0 0 1-.185.077h-5.964a.254.254 0 0 1-.185-.077.252.252 0 0 1-.077-.184v-8.58c0-.072.026-.134.077-.185a.254.254 0 0 1 .185-.077h5.964c.072 0 .134.026.185.077a.249.249 0 0 1 .077.184v1.26a.248.248 0 0 1-.077.185.252.252 0 0 1-.185.076h-4.292zm18.173-1.68a.258.258 0 0 1 .078.188v8.676a.55.55 0 0 1-.031.208.356.356 0 0 1-.07.114.22.22 0 0 1-.094.055h-.353a.358.358 0 0 1-.153-.04.633.633 0 0 1-.145-.094.747.747 0 0 1-.157-.133l-5.449-5.251v5.235a.254.254 0 0 1-.079.188.255.255 0 0 1-.187.079h-1.426a.256.256 0 0 1-.188-.078.257.257 0 0 1-.078-.189v-8.676c0-.088.013-.156.039-.203a.387.387 0 0 1 .086-.11.488.488 0 0 1 .126-.063h.101c.032 0 .07-.001.114-.004a3 3 0 0 1 .137-.004c.047 0 .097.015.149.044.052.028.102.061.149.097.052.042.104.087.156.134l5.396 5.212v-5.197c0-.073.026-.135.078-.188a.26.26 0 0 1 .189-.078h1.423a.26.26 0 0 1 .189.078zm12.086 7.956c0 .13-.012.234-.036.312-.023.077-.106.153-.247.225a5.536 5.536 0 0 1-1.535.553c-.57.13-1.176.195-1.818.195-.857 0-1.609-.195-2.257-.584-.643-.39-1.141-.945-1.497-1.666-.355-.71-.532-1.56-.532-2.545 0-.488.043-.945.129-1.37a4.55 4.55 0 0 1 .403-1.176 3.91 3.91 0 0 1 1.497-1.665c.653-.384 1.405-.576 2.257-.576.276 0 .548.015.815.047.266.03.532.075.799.132a12.299 12.299 0 0 1 1.058.3c.162.054.304.106.427.155.122.05.213.09.27.12a.294.294 0 0 1 .11.137.23.23 0 0 1 0 .167L148.638 37a.268.268 0 0 1-.134.155.25.25 0 0 1-.203.008c-.293-.103-.591-.2-.894-.288-.261-.072-.547-.14-.858-.202a4.52 4.52 0 0 0-.889-.093c-.737 0-1.309.251-1.716.755-.402.503-.603 1.232-.603 2.187 0 .955.203 1.684.611 2.187.402.509.971.763 1.708.763a5.336 5.336 0 0 0 1.599-.241v-1.518h-1.905a.271.271 0 0 1-.192-.078.25.25 0 0 1-.082-.187v-1.222c0-.072.028-.135.082-.187a.271.271 0 0 1 .192-.078h3.605c.073 0 .136.026.188.078a.255.255 0 0 1 .078.187l-.007 3.806z" fill="#333"/><mask id="b" maskUnits="userSpaceOnUse" x="154" y="35" width="7" height="10"><path fill-rule="evenodd" clip-rule="evenodd" d="M154.544 35.015h6.448v9.261h-6.448v-9.26z" fill="#fff"/></mask><g mask="url(#b)"><path fill-rule="evenodd" clip-rule="evenodd" d="M156.465 36.828v1.775h3.013c.072 0 .133.026.184.078a.255.255 0 0 1 .077.187v1.282a.255.255 0 0 1-.077.188.247.247 0 0 1-.184.078h-3.013v2.047h4.265a.25.25 0 0 1 .185.078.26.26 0 0 1 .077.188v1.282a.259.259 0 0 1-.077.187.25.25 0 0 1-.185.078h-5.925a.248.248 0 0 1-.184-.078.259.259 0 0 1-.077-.187v-8.73a.26.26 0 0 1 .077-.188.248.248 0 0 1 .184-.078h5.925a.25.25 0 0 1 .185.078.26.26 0 0 1 .077.188v1.282a.259.259 0 0 1-.077.187.25.25 0 0 1-.185.078h-4.265z" fill="#333"/></g><path fill-rule="evenodd" clip-rule="evenodd" d="M61.207 61.274a.245.245 0 0 1 .07.173v1.306a.245.245 0 0 1-.246.247h-5.718a.245.245 0 0 1-.245-.247v-1.306c0-.066.022-.124.068-.173a.231.231 0 0 1 .177-.074h1.939v-4.889l-1.74 1.012a.222.222 0 0 1-.188.023.268.268 0 0 1-.15-.116l-.597-1.035a.257.257 0 0 1-.02-.189.254.254 0 0 1 .112-.15l2.975-1.73 1.093-.626a.552.552 0 0 1 .223-.081c.057-.003.1.011.131.042.031.03.051.072.062.124.01.051.015.105.015.162V61.2h1.863c.071 0 .13.025.176.074zm13.455-.003a.239.239 0 0 1 .07.178v1.303a.239.239 0 0 1-.07.178.248.248 0 0 1-.182.07h-7.243a.192.192 0 0 1-.174-.116.246.246 0 0 1-.02-.117.241.241 0 0 1 .06-.131l4.245-4.164.418-.426a10.8 10.8 0 0 0 .3-.318c.163-.191.29-.372.379-.543a1.27 1.27 0 0 0 .134-.55c0-.362-.108-.644-.324-.845-.226-.197-.539-.295-.939-.295-.294 0-.61.037-.946.109a.183.183 0 0 1-.048.03 3.992 3.992 0 0 0-.363.125c-.147.057-.29.114-.426.17a8.41 8.41 0 0 0-.497.225.27.27 0 0 1-.205.012.224.224 0 0 1-.142-.128l-.552-1.124c-.069-.14-.03-.253.118-.341a16.486 16.486 0 0 1 1.373-.597l.288-.101a3.907 3.907 0 0 1 .832-.186c.18-.02.392-.031.64-.031.678 0 1.26.119 1.743.356.479.243.84.58 1.081 1.008.242.43.363.941.363 1.535 0 .523-.134 1.016-.402 1.481-.269.465-.663.946-1.184 1.442l-1.783 1.721h3.274c.074 0 .134.023.182.07z" fill="#333"/></svg>