<svg width="176" height="31" fill="none" xmlns="http://www.w3.org/2000/svg"><mask id="a" maskUnits="userSpaceOnUse" x="0" y="0" width="27" height="31"><path fill-rule="evenodd" clip-rule="evenodd" d="M0 .03h26.279v30.181H0V.031z" fill="#fff"/></mask><g mask="url(#a)"><path fill-rule="evenodd" clip-rule="evenodd" d="M.234 5.25l17.076 9.878L.296 24.965c-.34.218-.293.565-.293.565l.03 4.393s.084.464.503.215l25.543-14.72s.2-.107.2-.291-.2-.288-.2-.288L.552.111C-.121-.227.033.606.033.606l-.03 4.057s-.049.452.23.587z" fill="#FFD200"/></g><path fill-rule="evenodd" clip-rule="evenodd" d="M43.052 16.715c.296-.34.444-.84.444-1.501 0-.66-.148-1.16-.444-1.5-.297-.337-.734-.505-1.312-.505h-.8v4.015h.8c.582 0 1.02-.17 1.312-.51zm1.528-3.304c.248.511.373 1.112.373 1.803 0 .69-.125 1.29-.373 1.797-.244.5-.598.88-1.061 1.137-.463.261-1.019.392-1.667.392H39.74a.18.18 0 0 1-.133-.056.184.184 0 0 1-.056-.135v-6.265c0-.052.019-.097.056-.134a.182.182 0 0 1 .133-.056h2.112c.645 0 1.2.128 1.667.386.467.261.82.638 1.061 1.13zm5.608-.216v1.273h2.198c.052 0 .097.019.134.056a.183.183 0 0 1 .056.135v.92a.183.183 0 0 1-.056.134.183.183 0 0 1-.134.056h-2.198v1.47H53.3a.18.18 0 0 1 .134.056.184.184 0 0 1 .056.134v.92a.184.184 0 0 1-.056.135.184.184 0 0 1-.134.056h-4.324a.182.182 0 0 1-.134-.056.184.184 0 0 1-.056-.135v-6.265a.18.18 0 0 1 .056-.134.183.183 0 0 1 .134-.056H53.3a.18.18 0 0 1 .134.056.184.184 0 0 1 .056.134v.92a.184.184 0 0 1-.056.135.184.184 0 0 1-.134.056h-3.112zm9.947 5.599l-3.483-6.662c-.027-.048-.032-.087-.017-.115a.186.186 0 0 1 .068-.07.38.38 0 0 1 .12-.04l1.117-.01a.289.289 0 0 1 .08 0 .477.477 0 0 1 .071.03c.025.013.049.04.072.082l2.115 4.26 2.126-4.25a.188.188 0 0 1 .071-.086.23.23 0 0 1 .077-.031.195.195 0 0 1 .08.006h1.163c.038.014.07.033.097.056a.153.153 0 0 1 .048.078c.01.034.003.073-.02.118l-3.506 6.634a.18.18 0 0 1-.034.045.284.284 0 0 1-.043.034.106.106 0 0 1-.06.017v-.017.017a.117.117 0 0 1-.065-.017.279.279 0 0 1-.043-.034.18.18 0 0 1-.034-.045zm17.907-.831c.02.053.02.1.003.14-.017.04-.058.076-.123.11a4.777 4.777 0 0 1-.662.251 5.985 5.985 0 0 1-.73.174 5.145 5.145 0 0 1-.92.077c-.627 0-1.177-.143-1.65-.427a2.9 2.9 0 0 1-1.095-1.22c-.256-.524-.383-1.145-.383-1.863 0-.717.127-1.338.383-1.863a2.907 2.907 0 0 1 1.096-1.213 2.69 2.69 0 0 1 .765-.313c.27-.065.563-.097.879-.097.395 0 .779.042 1.15.125a7.7 7.7 0 0 1 1.168.37c.053.02.09.052.114.097a.182.182 0 0 1 .005.148l-.308.883a.194.194 0 0 1-.097.114.182.182 0 0 1-.148.006 16.67 16.67 0 0 0-.434-.148 13.128 13.128 0 0 0-.52-.165 3.896 3.896 0 0 0-.873-.097c-.537 0-.952.184-1.245.552-.293.365-.44.899-.44 1.601 0 .707.147 1.242.44 1.607.297.368.712.553 1.245.553.156 0 .306-.008.45-.023a3.066 3.066 0 0 0 .663-.143l.32-.102c.125-.042.255-.088.388-.137a.19.19 0 0 1 .251.12l.308.883zm9.018-6.013a.182.182 0 0 1 .058.134v6.265a.182.182 0 0 1-.057.135.188.188 0 0 1-.137.056h-1.037a.188.188 0 0 1-.137-.056.181.181 0 0 1-.057-.135v-2.598h-2.552v2.598a.182.182 0 0 1-.057.135.188.188 0 0 1-.137.056H81.91a.188.188 0 0 1-.137-.056.181.181 0 0 1-.057-.135v-6.265c0-.052.02-.097.057-.134a.189.189 0 0 1 .137-.056h1.037c.053 0 .099.018.137.056a.182.182 0 0 1 .057.134v2.408h2.552v-2.408c0-.052.02-.097.057-.134a.189.189 0 0 1 .137-.056h1.037c.053 0 .099.018.137.056zm7.212 3.989l-.89-1.78-.883 1.78h1.773zm2.753 2.33c.023.048.03.09.02.123a.151.151 0 0 1-.049.079.346.346 0 0 1-.096.056h-1.163a.192.192 0 0 1-.08.005.229.229 0 0 1-.077-.03.187.187 0 0 1-.071-.087l-.576-1.146h-3.09l-.576 1.157a.22.22 0 0 1-.071.084.198.198 0 0 1-.071.028.191.191 0 0 1-.08-.006l-1.117-.005a.374.374 0 0 1-.12-.04.187.187 0 0 1-.069-.07c-.015-.028-.009-.066.018-.115l3.483-6.663a.178.178 0 0 1 .034-.045.173.173 0 0 1 .108-.05v.016-.016c.038.003.072.02.103.05a.19.19 0 0 1 .034.045l3.506 6.63zm7.808-1.011a.188.188 0 0 1 .057.14v.951a.182.182 0 0 1-.057.135.187.187 0 0 1-.136.056h-4.493a.187.187 0 0 1-.136-.056.182.182 0 0 1-.057-.135v-6.265a.18.18 0 0 1 .057-.134.187.187 0 0 1 .136-.056h1.034c.053 0 .098.018.136.056a.182.182 0 0 1 .057.134v5.118h3.266c.053 0 .098.018.136.056zm9.06 0a.188.188 0 0 1 .057.14v.951a.182.182 0 0 1-.057.135.187.187 0 0 1-.136.056h-4.493a.187.187 0 0 1-.136-.056.182.182 0 0 1-.057-.135v-6.265a.18.18 0 0 1 .057-.134.187.187 0 0 1 .136-.056h1.034c.053 0 .099.018.136.056a.182.182 0 0 1 .057.134v5.118h3.266c.053 0 .098.018.136.056zm5.466-4.063v1.273h2.198c.052 0 .097.019.135.056a.185.185 0 0 1 .056.135v.92a.185.185 0 0 1-.056.134.186.186 0 0 1-.135.056h-2.198v1.47h3.112c.052 0 .097.018.135.056a.185.185 0 0 1 .056.134v.92a.185.185 0 0 1-.056.135.186.186 0 0 1-.135.056h-4.324a.182.182 0 0 1-.134-.056.185.185 0 0 1-.056-.135v-6.265c0-.052.019-.097.056-.134a.183.183 0 0 1 .134-.056h4.324c.052 0 .097.018.135.056a.185.185 0 0 1 .056.134v.92a.185.185 0 0 1-.056.135.186.186 0 0 1-.135.056h-3.112zm13.177-1.227a.188.188 0 0 1 .057.137v6.335a.387.387 0 0 1-.023.152.252.252 0 0 1-.051.083.15.15 0 0 1-.068.04h-.256a.258.258 0 0 1-.111-.029.486.486 0 0 1-.105-.068.537.537 0 0 1-.113-.098l-3.952-3.834v3.823a.19.19 0 0 1-.056.137.187.187 0 0 1-.137.057h-1.033a.183.183 0 0 1-.136-.057.187.187 0 0 1-.057-.137v-6.335c0-.065.009-.114.028-.149a.278.278 0 0 1 .063-.08.326.326 0 0 1 .091-.046h.073c.023 0 .05 0 .083-.003a1.67 1.67 0 0 1 .099-.003c.034 0 .07.011.108.032a.805.805 0 0 1 .108.072c.038.03.075.063.113.097l3.913 3.805v-3.794c0-.053.019-.099.057-.137a.185.185 0 0 1 .136-.057h1.032c.053 0 .099.019.137.057zm8.763 5.809a.82.82 0 0 1-.025.227c-.017.057-.077.112-.179.165-.33.182-.701.317-1.114.404a5.889 5.889 0 0 1-1.318.142c-.621 0-1.167-.142-1.636-.426a2.848 2.848 0 0 1-1.085-1.217c-.258-.519-.387-1.138-.387-1.858 0-.356.031-.69.094-1 .062-.311.16-.597.293-.859a2.841 2.841 0 0 1 1.085-1.216c.473-.28 1.019-.42 1.636-.42.201 0 .398.011.591.034.193.022.386.055.579.096a8.42 8.42 0 0 1 1.077.333c.089.036.154.065.196.088a.22.22 0 0 1 .08.1c.015.04.015.08 0 .122l-.307.88a.192.192 0 0 1-.097.114.18.18 0 0 1-.147.006 12.281 12.281 0 0 0-.648-.21 8.902 8.902 0 0 0-.622-.148 3.279 3.279 0 0 0-.645-.068c-.534 0-.949.183-1.244.55-.292.368-.438.9-.438 1.598 0 .697.148 1.23.443 1.597.292.371.705.557 1.239.557a3.841 3.841 0 0 0 1.159-.176v-1.108h-1.381a.195.195 0 0 1-.139-.057.181.181 0 0 1-.06-.137v-.892a.18.18 0 0 1 .06-.136.195.195 0 0 1 .139-.057h2.614c.053 0 .098.019.136.057a.186.186 0 0 1 .057.136l-.006 2.78z" fill="#333"/><mask id="b" maskUnits="userSpaceOnUse" x="145" y="11" width="5" height="8"><path fill-rule="evenodd" clip-rule="evenodd" d="M145.162 11.924h4.675v6.762h-4.675v-6.762z" fill="#fff"/></mask><g mask="url(#b)"><path fill-rule="evenodd" clip-rule="evenodd" d="M146.555 13.248v1.295h2.184c.052 0 .096.02.134.058a.19.19 0 0 1 .055.136v.936a.189.189 0 0 1-.055.137.182.182 0 0 1-.134.057h-2.184v1.495h3.092a.18.18 0 0 1 .134.058.19.19 0 0 1 .056.136v.936a.19.19 0 0 1-.056.137.18.18 0 0 1-.134.057h-4.297a.179.179 0 0 1-.133-.057.189.189 0 0 1-.055-.137v-6.374a.19.19 0 0 1 .055-.137.179.179 0 0 1 .133-.057h4.297a.18.18 0 0 1 .134.057.19.19 0 0 1 .056.137v.936a.19.19 0 0 1-.056.137.18.18 0 0 1-.134.057h-3.092z" fill="#333"/></g><path fill-rule="evenodd" clip-rule="evenodd" d="M166.171 17.454c.033.036.05.078.05.127v.953a.181.181 0 0 1-.05.127.168.168 0 0 1-.128.054h-4.146a.167.167 0 0 1-.128-.054.181.181 0 0 1-.05-.127v-.953c0-.049.017-.09.05-.127a.167.167 0 0 1 .128-.053h1.406v-3.57l-1.262.739a.16.16 0 0 1-.136.017.195.195 0 0 1-.108-.085l-.434-.756a.19.19 0 0 1 .067-.248l2.157-1.263.793-.457a.398.398 0 0 1 .162-.06c.04-.001.072.01.094.032a.165.165 0 0 1 .045.09.646.646 0 0 1 .011.119V17.4h1.351a.17.17 0 0 1 .128.053zm9.755-.002a.174.174 0 0 1 .052.13v.952a.173.173 0 0 1-.052.13.178.178 0 0 1-.131.05h-5.252a.134.134 0 0 1-.075-.022.14.14 0 0 1-.051-.062.174.174 0 0 1-.014-.085.176.176 0 0 1 .043-.096l3.077-3.04a33.306 33.306 0 0 0 .521-.543c.118-.14.21-.272.275-.397a.94.94 0 0 0 .097-.402c0-.264-.078-.47-.235-.617-.164-.143-.391-.215-.68-.215-.214 0-.443.027-.687.08a.14.14 0 0 1-.034.022c-.069.019-.157.05-.263.09-.107.042-.21.084-.309.125-.119.05-.239.104-.361.164a.195.195 0 0 1-.149.009.167.167 0 0 1-.103-.094l-.4-.82c-.05-.102-.021-.185.086-.25a13.44 13.44 0 0 1 .655-.3 9.425 9.425 0 0 1 .549-.209 2.777 2.777 0 0 1 .604-.136 4.08 4.08 0 0 1 .463-.023c.492 0 .913.087 1.264.26.347.178.609.424.784.737.176.313.263.687.263 1.12 0 .382-.097.742-.291 1.082-.195.34-.481.69-.859 1.053l-1.292 1.256h2.374c.053 0 .097.018.131.051z" fill="#333"/><path fill="#333" d="M153.501 17.491h4.53v1.224h-4.53zm-87.988 0h4.53v1.224h-4.53z"/></svg>