<svg width="19" height="18" fill="none" xmlns="http://www.w3.org/2000/svg"><g opacity=".398"><path fill-rule="evenodd" clip-rule="evenodd" d="M7.96 1.69a7.733 7.733 0 0 1 1.707-.197c1.451 0 2.563.353 3.334 1.06.77.707 1.156 1.687 1.156 2.944 0 1.044-.284 1.866-.852 2.464-.568.598-1.113 1.058-2.286 1.382l-.069 2.125a.48.48 0 0 1-.27.41c-.165.089-.78.131-1.193.131-.313 0-.348-.024-.419-.074a.726.726 0 0 0-.089-.056.48.48 0 0 1-.27-.411l.009-3.512c-.015-.33.102-.523.35-.575 0 0 1.723-.146 2.321-.45.614-.31.736-1.032.736-1.552 0-.564-.175-.99-.527-1.28-.35-.292-.864-.437-1.54-.437-.858 0-1.778.2-2.756.599a.659.659 0 0 1-.261.052c-.173 0-.335-.083-.487-.247a.375.375 0 0 0-.183-.104c-.096-.03-.19-.06-.268-.259-.135-.338-.203-.612-.203-.823 0-.307.143-.527.428-.654A8.638 8.638 0 0 1 7.96 1.69zm3.128 12.5h-2.31v2.31h2.31v-2.31z" fill="#000"/><mask id="a" maskUnits="userSpaceOnUse" x="5" y="1" width="10" height="16"><path fill-rule="evenodd" clip-rule="evenodd" d="M7.96 1.69a7.733 7.733 0 0 1 1.707-.197c1.451 0 2.563.353 3.334 1.06.77.707 1.156 1.687 1.156 2.944 0 1.044-.284 1.866-.852 2.464-.568.598-1.113 1.058-2.286 1.382l-.069 2.125a.48.48 0 0 1-.27.41c-.165.089-.78.131-1.193.131-.313 0-.348-.024-.419-.074a.726.726 0 0 0-.089-.056.48.48 0 0 1-.27-.411l.009-3.512c-.015-.33.102-.523.35-.575 0 0 1.723-.146 2.321-.45.614-.31.736-1.032.736-1.552 0-.564-.175-.99-.527-1.28-.35-.292-.864-.437-1.54-.437-.858 0-1.778.2-2.756.599a.659.659 0 0 1-.261.052c-.173 0-.335-.083-.487-.247a.375.375 0 0 0-.183-.104c-.096-.03-.19-.06-.268-.259-.135-.338-.203-.612-.203-.823 0-.307.143-.527.428-.654A8.638 8.638 0 0 1 7.96 1.69zm3.128 12.5h-2.31v2.31h2.31v-2.31z" fill="#fff"/></mask><g mask="url(#a)"><path fill="#212121" d="M.5 0h300v300H.5z"/></g></g></svg>