<svg width="76" height="76" fill="none" xmlns="http://www.w3.org/2000/svg"><rect x="10" y="9" width="56" height="56" rx="28" fill="#FAFAFA" filter="url(#filter0_ddd)"/><mask id="a" maskUnits="userSpaceOnUse" x="10" y="9" width="56" height="56"><rect x="10" y="9" width="56" height="56" rx="28" fill="#fff"/></mask><g mask="url(#a)"><path fill="#FFD200" d="M10 9h56v56H10z"/><path fill-rule="evenodd" clip-rule="evenodd" d="M38 31c-3.31 0-6 2.69-6 6h3l-4 4-4-4h3c0-4.42 3.58-8 8-8 1.57 0 3.03.46 4.26 1.24L40.8 31.7A5.87 5.87 0 0 0 38 31zm3 6l4-4 4 4h-3c0 4.42-3.58 8-8 8a7.93 7.93 0 0 1-4.26-1.24l1.46-1.46c.83.45 1.79.7 2.8.7 3.31 0 6-2.69 6-6h-3z" fill="#000"/><mask id="b" maskUnits="userSpaceOnUse" x="27" y="29" width="22" height="16"><path fill-rule="evenodd" clip-rule="evenodd" d="M38 31c-3.31 0-6 2.69-6 6h3l-4 4-4-4h3c0-4.42 3.58-8 8-8 1.57 0 3.03.46 4.26 1.24L40.8 31.7A5.87 5.87 0 0 0 38 31zm3 6l4-4 4 4h-3c0 4.42-3.58 8-8 8a7.93 7.93 0 0 1-4.26-1.24l1.46-1.46c.83.45 1.79.7 2.8.7 3.31 0 6-2.69 6-6h-3z" fill="#fff"/></mask><g mask="url(#b)"><path fill="#F5F5F5" d="M-158-162h400v400h-400z"/></g></g><defs><filter id="filter0_ddd" x="0" y="0" width="76" height="76" filterUnits="userSpaceOnUse" color-interpolation-filters="sRGB"><feFlood flood-opacity="0" result="BackgroundImageFix"/><feColorMatrix in="SourceAlpha" values="0 0 0 0 0 0 0 0 0 0 0 0 0 0 0 0 0 0 127 0"/><feOffset dy="2"/><feGaussianBlur stdDeviation="2"/><feColorMatrix values="0 0 0 0 0 0 0 0 0 0 0 0 0 0 0 0 0 0 0.2 0"/><feBlend in2="BackgroundImageFix" result="effect1_dropShadow"/><feColorMatrix in="SourceAlpha" values="0 0 0 0 0 0 0 0 0 0 0 0 0 0 0 0 0 0 127 0"/><feOffset dy="1"/><feGaussianBlur stdDeviation="5"/><feColorMatrix values="0 0 0 0 0 0 0 0 0 0 0 0 0 0 0 0 0 0 0.12 0"/><feBlend in2="effect1_dropShadow" result="effect2_dropShadow"/><feColorMatrix in="SourceAlpha" values="0 0 0 0 0 0 0 0 0 0 0 0 0 0 0 0 0 0 127 0"/><feOffset dy="4"/><feGaussianBlur stdDeviation="2.5"/><feColorMatrix values="0 0 0 0 0 0 0 0 0 0 0 0 0 0 0 0 0 0 0.14 0"/><feBlend in2="effect2_dropShadow" result="effect3_dropShadow"/><feBlend in="SourceGraphic" in2="effect3_dropShadow" result="shape"/></filter></defs></svg>