<svg width="24" height="24" viewBox="0 0 24 24" fill="none" xmlns="http://www.w3.org/2000/svg">
<path fill-rule="evenodd" clip-rule="evenodd" d="M9.94568 2.25369C10.7218 2.07812 11.481 1.99036 12.2232 1.99036C14.1573 1.99036 15.6403 2.46158 16.6674 3.40399C17.6945 4.34644 18.2089 5.65381 18.2089 7.32922C18.2089 8.72131 17.83 9.81775 17.0739 10.6154C16.3163 11.4116 15.5895 12.026 14.0249 12.4572L13.9341 15.2906C13.914 15.5401 13.7939 15.7233 13.5737 15.8388C13.3535 15.9558 12.5343 16.0128 11.983 16.0128C11.5651 16.0128 11.5188 15.9801 11.4244 15.9133C11.3942 15.8919 11.3591 15.8671 11.3054 15.8388C11.0852 15.7233 10.9651 15.5401 10.9451 15.2906L10.9574 10.6077C10.9374 10.1673 11.0929 9.91013 11.424 9.84085C11.424 9.84085 13.7216 9.64682 14.5192 9.24182C15.3369 8.82758 15.5002 7.86514 15.5002 7.17218C15.5002 6.42068 15.2661 5.85092 14.7979 5.46442C14.3298 5.07635 13.6461 4.88232 12.7437 4.88232C11.5995 4.88232 10.3738 5.14871 9.06946 5.68152C8.96475 5.7262 8.84927 5.75082 8.72144 5.75082C8.49045 5.75082 8.27487 5.63995 8.07159 5.4213C7.99225 5.33533 7.90936 5.30875 7.82764 5.2825C7.70004 5.24155 7.57523 5.20151 7.47104 4.93774C7.29086 4.48657 7.20001 4.12161 7.20001 3.83978C7.20001 3.43018 7.39096 3.1376 7.77133 2.9682C8.44272 2.66791 9.16803 2.42923 9.94568 2.25369ZM14.1179 18.9202H11.0381V22H14.1179V18.9202Z" fill="black"/>
<mask id="mask0" mask-type="alpha" maskUnits="userSpaceOnUse" x="7" y="1" width="12" height="21">
<path fill-rule="evenodd" clip-rule="evenodd" d="M9.94568 2.25369C10.7218 2.07812 11.481 1.99036 12.2232 1.99036C14.1573 1.99036 15.6403 2.46158 16.6674 3.40399C17.6945 4.34644 18.2089 5.65381 18.2089 7.32922C18.2089 8.72131 17.83 9.81775 17.0739 10.6154C16.3163 11.4116 15.5895 12.026 14.0249 12.4572L13.9341 15.2906C13.914 15.5401 13.7939 15.7233 13.5737 15.8388C13.3535 15.9558 12.5343 16.0128 11.983 16.0128C11.5651 16.0128 11.5188 15.9801 11.4244 15.9133C11.3942 15.8919 11.3591 15.8671 11.3054 15.8388C11.0852 15.7233 10.9651 15.5401 10.9451 15.2906L10.9574 10.6077C10.9374 10.1673 11.0929 9.91013 11.424 9.84085C11.424 9.84085 13.7216 9.64682 14.5192 9.24182C15.3369 8.82758 15.5002 7.86514 15.5002 7.17218C15.5002 6.42068 15.2661 5.85092 14.7979 5.46442C14.3298 5.07635 13.6461 4.88232 12.7437 4.88232C11.5995 4.88232 10.3738 5.14871 9.06946 5.68152C8.96475 5.7262 8.84927 5.75082 8.72144 5.75082C8.49045 5.75082 8.27487 5.63995 8.07159 5.4213C7.99225 5.33533 7.90936 5.30875 7.82764 5.2825C7.70004 5.24155 7.57523 5.20151 7.47104 4.93774C7.29086 4.48657 7.20001 4.12161 7.20001 3.83978C7.20001 3.43018 7.39096 3.1376 7.77133 2.9682C8.44272 2.66791 9.16803 2.42923 9.94568 2.25369ZM14.1179 18.9202H11.0381V22H14.1179V18.9202Z" fill="white"/>
</mask>
<g mask="url(#mask0)">
<rect width="400" height="400" fill="#F5F5F5"/>
</g>
</svg>
