<svg width="161" height="63" viewBox="0 0 161 63" fill="none" xmlns="http://www.w3.org/2000/svg">
<mask id="mask0" mask-type="alpha" maskUnits="userSpaceOnUse" x="0" y="0" width="37" height="42">
<path fill-rule="evenodd" clip-rule="evenodd" d="M0 0.0415649H36.2429V41.3765H0V0.0415649Z" fill="white"/>
</mask>
<g mask="url(#mask0)">
<path fill-rule="evenodd" clip-rule="evenodd" d="M0.322657 7.19082L23.8738 20.719L0.40793 34.1905C-0.0602579 34.4894 0.00442989 34.9651 0.00442989 34.9651L0.0457962 40.982C0.0457962 40.982 0.161752 41.6167 0.739382 41.2759L35.9675 21.1151C35.9675 21.1151 36.2428 20.9693 36.2428 20.7174C36.2428 20.4653 35.9675 20.323 35.9675 20.323L0.76101 0.151995C-0.167419 -0.310601 0.0457962 0.82958 0.0457962 0.82958L0.00442989 6.38657C0.00442989 6.38657 -0.0629288 7.0054 0.322657 7.19082Z" fill="#FFD200"/>
</g>
<path fill-rule="evenodd" clip-rule="evenodd" d="M59.3757 22.8916C59.7843 22.4265 59.9888 21.7414 59.9888 20.8365C59.9888 19.9316 59.7843 19.2466 59.3757 18.7812C58.9669 18.3212 58.364 18.0911 57.567 18.0911H56.4634V23.5895H57.567C58.3691 23.5895 58.972 23.3569 59.3757 22.8916ZM61.4835 18.3671C61.8258 19.0677 61.997 19.8907 61.997 20.8365C61.997 21.7823 61.8258 22.6029 61.4835 23.2981C61.1463 23.9832 60.6583 24.5021 60.0198 24.8548C59.381 25.2127 58.6146 25.3916 57.7206 25.3916H54.8083C54.7367 25.3916 54.6754 25.3661 54.6244 25.3149C54.5733 25.2639 54.5478 25.2025 54.5478 25.1309V16.5497C54.5478 16.4782 54.5733 16.4169 54.6244 16.3656C54.6754 16.3146 54.7367 16.289 54.8083 16.289H57.7206C58.6096 16.289 59.376 16.4653 60.0198 16.8181C60.6635 17.176 61.1514 17.6923 61.4835 18.3671Z" fill="#333333"/>
<path fill-rule="evenodd" clip-rule="evenodd" d="M69.2169 18.0711V19.8148H72.2483C72.3203 19.8148 72.3822 19.8405 72.4339 19.8916C72.4853 19.9429 72.5112 20.0043 72.5112 20.076V21.3358C72.5112 21.4075 72.4853 21.469 72.4339 21.5201C72.3822 21.5714 72.3203 21.597 72.2483 21.597H69.2169V23.6095H73.5087C73.5809 23.6095 73.6427 23.6352 73.6943 23.6864C73.7458 23.7376 73.7716 23.7991 73.7716 23.8707V25.1305C73.7716 25.2023 73.7458 25.2637 73.6943 25.3149C73.6427 25.3661 73.5809 25.3916 73.5087 25.3916H67.5455C67.4735 25.3916 67.4119 25.3661 67.3606 25.3149C67.3092 25.2637 67.2836 25.2023 67.2836 25.1305V16.5501C67.2836 16.4785 67.3092 16.4171 67.3606 16.3658C67.4119 16.3147 67.4735 16.289 67.5455 16.289H73.5087C73.5809 16.289 73.6427 16.3147 73.6943 16.3658C73.7458 16.4171 73.7716 16.4785 73.7716 16.5501V17.81C73.7716 17.8817 73.7458 17.9431 73.6943 17.9943C73.6427 18.0455 73.5809 18.0711 73.5087 18.0711H69.2169Z" fill="#333333"/>
<path fill-rule="evenodd" clip-rule="evenodd" d="M82.9358 25.7401L78.1321 16.6156C78.0953 16.5491 78.0875 16.4965 78.1085 16.458C78.1294 16.4196 78.1608 16.3877 78.2028 16.362C78.25 16.3364 78.3051 16.3185 78.368 16.3081L79.9089 16.2928C79.9455 16.2877 79.9823 16.2877 80.019 16.2928C80.0504 16.3031 80.0831 16.3171 80.1173 16.3351C80.1513 16.3531 80.1841 16.3902 80.2155 16.4465L83.1324 22.2809L86.0649 16.4619C86.0911 16.4055 86.124 16.3658 86.1632 16.3428C86.2026 16.3197 86.2379 16.3056 86.2694 16.3005C86.306 16.2954 86.3427 16.298 86.3794 16.3081H87.9833C88.0356 16.3287 88.0802 16.3543 88.1169 16.3851C88.1484 16.4108 88.1706 16.4465 88.1839 16.4926C88.1968 16.5388 88.1877 16.5926 88.1563 16.6541L83.3211 25.7401C83.3105 25.7605 83.2948 25.7811 83.2739 25.8016C83.2582 25.8169 83.2385 25.8324 83.2149 25.8477C83.1914 25.8631 83.1638 25.8707 83.1324 25.8707V25.8477V25.8707C83.0957 25.8707 83.0656 25.8631 83.042 25.8477C83.0184 25.8324 82.9987 25.8169 82.983 25.8016C82.962 25.7811 82.9463 25.7605 82.9358 25.7401Z" fill="#333333"/>
<path fill-rule="evenodd" clip-rule="evenodd" d="M61.9763 43.2856C62.0025 43.3585 62.0039 43.4222 61.9803 43.4769C61.9566 43.5314 61.9002 43.5822 61.811 43.629C61.5327 43.7591 61.2283 43.8735 60.8976 43.9722C60.6142 44.0608 60.2782 44.1401 59.8898 44.2103C59.5013 44.2805 59.0789 44.3156 58.6222 44.3156C57.7561 44.3156 56.9976 44.1206 56.3467 43.7304C55.7011 43.3403 55.1972 42.7837 54.835 42.0606C54.4833 41.3428 54.3075 40.4923 54.3075 39.5091C54.3075 38.526 54.4833 37.6755 54.835 36.9576C55.1972 36.2398 55.7011 35.6858 56.3467 35.2956C56.6774 35.098 57.029 34.955 57.4018 34.8665C57.7744 34.778 58.1786 34.7338 58.6143 34.7338C59.1602 34.7338 59.6891 34.7912 60.2008 34.9056C60.7126 35.02 61.2492 35.1891 61.811 35.4127C61.8844 35.4388 61.9369 35.4829 61.9684 35.5453C61.9999 35.6077 62.0025 35.6754 61.9763 35.7482L61.5511 36.9576C61.5248 37.0306 61.4802 37.0825 61.4173 37.1137C61.3543 37.1449 61.286 37.1476 61.2126 37.1215C60.9921 37.0434 60.7926 36.9759 60.6142 36.9186C60.4619 36.8667 60.315 36.8185 60.1733 36.7742C60.0316 36.7301 59.9396 36.7028 59.8977 36.6923C59.5092 36.6039 59.1076 36.5597 58.6931 36.5597C57.953 36.5597 57.3808 36.8121 56.9766 37.3165C56.5724 37.8159 56.3703 38.5469 56.3703 39.5091C56.3703 40.4767 56.5724 41.2102 56.9766 41.7095C57.386 42.2141 57.9581 42.4663 58.6931 42.4663C58.9082 42.4663 59.1155 42.456 59.315 42.4352C59.5144 42.4145 59.7087 42.3805 59.8977 42.3337C59.9711 42.3181 60.0813 42.2868 60.2284 42.2401C60.3753 42.1932 60.5223 42.1465 60.6693 42.0996C60.8425 42.0424 61.0209 41.98 61.2047 41.9123C61.2781 41.8864 61.3476 41.889 61.4133 41.9201C61.4789 41.9514 61.5248 42.0034 61.5511 42.0762L61.9763 43.2856Z" fill="#333333"/>
<path fill-rule="evenodd" clip-rule="evenodd" d="M74.414 35.05C74.4663 35.1012 74.4925 35.1625 74.4925 35.2341V43.8152C74.4925 43.8869 74.4663 43.9483 74.414 43.9992C74.3616 44.0505 74.2987 44.076 74.2254 44.076H72.7952C72.7219 44.076 72.659 44.0505 72.6066 43.9992C72.5542 43.9483 72.5281 43.8869 72.5281 43.8152V40.257H69.0077V43.8152C69.0077 43.8869 68.9815 43.9483 68.9292 43.9992C68.8768 44.0505 68.8139 44.076 68.7406 44.076H67.3104C67.2371 44.076 67.1742 44.0505 67.1218 43.9992C67.0694 43.9483 67.0433 43.8869 67.0433 43.8152V35.2341C67.0433 35.1625 67.0694 35.1012 67.1218 35.05C67.1742 34.999 67.2371 34.9734 67.3104 34.9734H68.7406C68.8139 34.9734 68.8768 34.999 68.9292 35.05C68.9815 35.1012 69.0077 35.1625 69.0077 35.2341V38.5316H72.5281V35.2341C72.5281 35.1625 72.5542 35.1012 72.6066 35.05C72.659 34.999 72.7219 34.9734 72.7952 34.9734H74.2254C74.2987 34.9734 74.3616 34.999 74.414 35.05Z" fill="#333333"/>
<path fill-rule="evenodd" clip-rule="evenodd" d="M84.3593 40.5139L83.1328 38.0769L81.9141 40.5139H84.3593ZM88.1563 43.7044C88.1878 43.7711 88.1968 43.8274 88.1838 43.8735C88.1707 43.9197 88.1484 43.9556 88.117 43.9812C88.0803 44.012 88.0357 44.0377 87.9834 44.058H86.3795C86.3428 44.0684 86.306 44.0709 86.2694 44.0658C86.2379 44.0607 86.2026 44.0465 86.1633 44.0235C86.1239 44.0004 86.0911 43.9608 86.065 43.9043L85.2709 42.336H81.0096L80.2156 43.9197C80.1841 43.9762 80.1513 44.0146 80.1173 44.035C80.0831 44.0555 80.0504 44.0684 80.019 44.0735C79.9823 44.0786 79.9455 44.0761 79.9089 44.0658L78.368 44.058C78.3051 44.0478 78.25 44.0299 78.2029 44.0043C78.1608 43.9787 78.1294 43.9466 78.1085 43.9081C78.0875 43.8697 78.0953 43.8172 78.1321 43.7505L82.9358 34.625C82.9463 34.6046 82.962 34.5841 82.983 34.5635C83.0249 34.5226 83.0746 34.4994 83.1324 34.4943V34.5173V34.4943C83.1847 34.4994 83.2319 34.5226 83.2739 34.5635C83.2948 34.5841 83.3105 34.6046 83.3211 34.625L88.1563 43.7044Z" fill="#333333"/>
<path fill-rule="evenodd" clip-rule="evenodd" d="M98.9247 42.3199C98.9768 42.371 99.003 42.4349 99.003 42.5116V43.8152C99.003 43.8869 98.9768 43.9482 98.9247 43.9992C98.8724 44.0505 98.8098 44.076 98.7367 44.076H92.5409C92.4678 44.076 92.4051 44.0505 92.353 43.9992C92.3007 43.9482 92.2747 43.8869 92.2747 43.8152V35.2341C92.2747 35.1625 92.3007 35.1012 92.353 35.05C92.4051 34.999 92.4678 34.9734 92.5409 34.9734H93.9665C94.0396 34.9734 94.1023 34.999 94.1545 35.05C94.2066 35.1012 94.2328 35.1625 94.2328 35.2341V42.2432H98.7367C98.8098 42.2432 98.8724 42.2688 98.9247 42.3199Z" fill="#333333"/>
<path fill-rule="evenodd" clip-rule="evenodd" d="M111.42 42.3199C111.472 42.371 111.499 42.4349 111.499 42.5116V43.8152C111.499 43.8869 111.472 43.9482 111.42 43.9992C111.368 44.0505 111.305 44.076 111.232 44.076H105.036C104.963 44.076 104.901 44.0505 104.848 43.9992C104.796 43.9482 104.77 43.8869 104.77 43.8152V35.2341C104.77 35.1625 104.796 35.1012 104.848 35.05C104.901 34.999 104.963 34.9734 105.036 34.9734H106.462C106.535 34.9734 106.598 34.999 106.65 35.05C106.702 35.1012 106.728 35.1625 106.728 35.2341V42.2432H111.232C111.305 42.2432 111.368 42.2688 111.42 42.3199Z" fill="#333333"/>
<path fill-rule="evenodd" clip-rule="evenodd" d="M118.959 36.7555V38.4992H121.99C122.062 38.4992 122.124 38.5249 122.176 38.576C122.227 38.6273 122.253 38.6887 122.253 38.7604V40.0202C122.253 40.092 122.227 40.1534 122.176 40.2045C122.124 40.2558 122.062 40.2814 121.99 40.2814H118.959V42.2939H123.251C123.323 42.2939 123.385 42.3196 123.436 42.3708C123.488 42.422 123.513 42.4835 123.513 42.5551V43.8149C123.513 43.8867 123.488 43.9481 123.436 43.9993C123.385 44.0505 123.323 44.076 123.251 44.076H117.287C117.215 44.076 117.154 44.0505 117.102 43.9993C117.051 43.9481 117.025 43.8867 117.025 43.8149V35.2345C117.025 35.1629 117.051 35.1014 117.102 35.0502C117.154 34.9991 117.215 34.9734 117.287 34.9734H123.251C123.323 34.9734 123.385 34.9991 123.436 35.0502C123.488 35.1014 123.513 35.1629 123.513 35.2345V36.4944C123.513 36.5661 123.488 36.6276 123.436 36.6787C123.385 36.73 123.323 36.7555 123.251 36.7555H118.959Z" fill="#333333"/>
<path fill-rule="evenodd" clip-rule="evenodd" d="M137.132 35.0752C137.184 35.1276 137.21 35.1903 137.21 35.2633V43.9394C137.21 44.0283 137.2 44.0975 137.179 44.1471C137.158 44.1967 137.135 44.2347 137.109 44.2607C137.082 44.2869 137.051 44.3052 137.015 44.3156H136.662C136.615 44.3156 136.564 44.3026 136.509 44.2764C136.454 44.2503 136.406 44.2189 136.364 44.1824C136.306 44.1458 136.254 44.1013 136.207 44.0491L130.758 38.798V44.0334C130.758 44.1067 130.732 44.1694 130.679 44.2215C130.627 44.2738 130.564 44.2999 130.492 44.2999H129.066C128.993 44.2999 128.93 44.2738 128.878 44.2215C128.826 44.1694 128.8 44.1067 128.8 44.0334V35.3574C128.8 35.2686 128.813 35.2006 128.839 35.1537C128.865 35.1066 128.894 35.0701 128.925 35.0439C128.962 35.0179 129.004 34.997 129.051 34.9812H129.152C129.184 34.9812 129.222 34.98 129.266 34.9773C129.31 34.9747 129.356 34.9734 129.403 34.9734C129.45 34.9734 129.5 34.9879 129.552 35.0165C129.604 35.0453 129.654 35.078 129.701 35.1145C129.753 35.1564 129.805 35.2006 129.857 35.2477L135.253 40.4596V35.2633C135.253 35.1903 135.279 35.1276 135.331 35.0752C135.384 35.0231 135.447 34.997 135.52 34.997H136.943C137.016 34.997 137.079 35.0231 137.132 35.0752Z" fill="#333333"/>
<path fill-rule="evenodd" clip-rule="evenodd" d="M149.218 43.0313C149.218 43.161 149.206 43.2648 149.182 43.3426C149.159 43.4205 149.076 43.4958 148.935 43.5684C148.481 43.8174 147.969 44.0017 147.4 44.121C146.83 44.2506 146.224 44.3156 145.582 44.3156C144.725 44.3156 143.973 44.121 143.325 43.7319C142.682 43.3426 142.184 42.7874 141.828 42.0661C141.473 41.3552 141.296 40.5068 141.296 39.5208C141.296 39.0331 141.339 38.5764 141.425 38.1508C141.511 37.7254 141.645 37.3336 141.828 36.9755C142.178 36.2594 142.677 35.7042 143.325 35.3098C143.978 34.9258 144.73 34.7338 145.582 34.7338C145.858 34.7338 146.13 34.7494 146.397 34.7805C146.663 34.8116 146.929 34.8558 147.196 34.9128C147.373 34.9544 147.554 35.0011 147.737 35.053C147.919 35.1049 148.092 35.158 148.254 35.2125C148.416 35.267 148.558 35.319 148.681 35.3682C148.803 35.4175 148.894 35.4577 148.951 35.4889C149.003 35.5252 149.04 35.5706 149.061 35.625C149.082 35.6796 149.082 35.7353 149.061 35.7924L148.638 36.9988C148.611 37.0716 148.567 37.1234 148.504 37.1545C148.442 37.1856 148.374 37.1884 148.301 37.1623C148.008 37.0586 147.71 36.9626 147.407 36.8743C147.146 36.8018 146.86 36.7343 146.549 36.672C146.239 36.6097 145.942 36.5786 145.66 36.5786C144.923 36.5786 144.351 36.8303 143.944 37.3336C143.542 37.837 143.341 38.5661 143.341 39.5208C143.341 40.4757 143.544 41.2048 143.952 41.7081C144.354 42.2167 144.923 42.4709 145.66 42.4709C145.942 42.4709 146.216 42.4502 146.483 42.4086C146.749 42.3671 147.008 42.3074 147.259 42.2296V40.7118H145.354C145.281 40.7118 145.217 40.6858 145.162 40.6339C145.108 40.5821 145.08 40.5198 145.08 40.4471V39.2251C145.08 39.1525 145.108 39.0902 145.162 39.0383C145.217 38.9864 145.281 38.9604 145.354 38.9604H148.959C149.032 38.9604 149.095 38.9864 149.147 39.0383C149.199 39.0902 149.225 39.1525 149.225 39.2251L149.218 43.0313Z" fill="#333333"/>
<mask id="mask1" mask-type="alpha" maskUnits="userSpaceOnUse" x="154" y="35" width="7" height="10">
<path fill-rule="evenodd" clip-rule="evenodd" d="M154.544 35.0153H160.992V44.2765H154.544V35.0153Z" fill="white"/>
</mask>
<g mask="url(#mask1)">
<path fill-rule="evenodd" clip-rule="evenodd" d="M156.465 36.8285V38.6026H159.478C159.55 38.6026 159.611 38.6287 159.662 38.6807C159.714 38.7328 159.739 38.7954 159.739 38.8683V40.15C159.739 40.223 159.714 40.2855 159.662 40.3375C159.611 40.3897 159.55 40.4157 159.478 40.4157H156.465V42.4633H160.73C160.802 42.4633 160.864 42.4894 160.915 42.5415C160.966 42.5936 160.992 42.6562 160.992 42.7291V44.0108C160.992 44.0838 160.966 44.1463 160.915 44.1984C160.864 44.2505 160.802 44.2765 160.73 44.2765H154.805C154.733 44.2765 154.672 44.2505 154.621 44.1984C154.57 44.1463 154.544 44.0838 154.544 44.0108V35.281C154.544 35.2081 154.57 35.1456 154.621 35.0934C154.672 35.0414 154.733 35.0153 154.805 35.0153H160.73C160.802 35.0153 160.864 35.0414 160.915 35.0934C160.966 35.1456 160.992 35.2081 160.992 35.281V36.5628C160.992 36.6358 160.966 36.6983 160.915 36.7503C160.864 36.8025 160.802 36.8285 160.73 36.8285H156.465Z" fill="#333333"/>
</g>
<path fill-rule="evenodd" clip-rule="evenodd" d="M61.2071 61.2737C61.2531 61.3227 61.2761 61.3806 61.2761 61.4474V62.7528C61.2761 62.8198 61.2531 62.8778 61.2071 62.9266C61.1611 62.9756 61.1023 63 61.0308 63H55.3127C55.2411 63 55.1824 62.9756 55.1364 62.9266C55.0904 62.8778 55.0674 62.8198 55.0674 62.7528V61.4474C55.0674 61.3806 55.0904 61.3227 55.1364 61.2737C55.1824 61.2248 55.2411 61.2003 55.3127 61.2003H57.2519V56.3111L55.512 57.323C55.4507 57.359 55.388 57.3667 55.3242 57.3461C55.2603 57.3256 55.2104 57.287 55.1747 57.2303L54.5769 56.1952C54.5462 56.1334 54.5397 56.0704 54.5577 56.006C54.5755 55.9417 54.6126 55.8915 54.6689 55.8554L57.6444 54.1252L58.7373 53.4996C58.8295 53.4482 58.9039 53.4212 58.9604 53.4185C59.0168 53.416 59.0605 53.4302 59.0912 53.461C59.122 53.4919 59.1425 53.5331 59.1527 53.5846C59.163 53.6361 59.1682 53.6902 59.1682 53.7468V61.2003H61.0308C61.1023 61.2003 61.1611 61.2248 61.2071 61.2737Z" fill="#333333"/>
<path fill-rule="evenodd" clip-rule="evenodd" d="M74.6618 61.2711C74.7092 61.3176 74.7328 61.3771 74.7328 61.4494V62.7519C74.7328 62.8243 74.7092 62.8837 74.6618 62.9302C74.6144 62.9767 74.5539 63 74.4804 63H67.2371C67.2003 63 67.1662 62.9897 67.1346 62.969C67.1031 62.9483 67.0794 62.9198 67.0635 62.8837C67.0478 62.8476 67.0411 62.8088 67.0439 62.7673C67.0465 62.7261 67.0661 62.6821 67.1031 62.6356L71.3479 58.4723C71.5057 58.3122 71.6451 58.1699 71.7661 58.0459C71.8871 57.9218 71.987 57.816 72.0659 57.7281C72.2289 57.5369 72.3551 57.3559 72.4446 57.1853C72.534 56.9992 72.5788 56.8159 72.5788 56.6349C72.5788 56.2732 72.4709 55.9914 72.2553 55.7898C72.0291 55.5935 71.716 55.4953 71.3163 55.4953C71.0217 55.4953 70.7061 55.5315 70.3696 55.6038C70.3589 55.6142 70.3432 55.6245 70.3222 55.6347C70.2276 55.6607 70.1065 55.702 69.9593 55.7588C69.8119 55.8157 69.6699 55.8726 69.5332 55.9294C69.3701 55.9966 69.2044 56.0717 69.0361 56.1542C68.9677 56.1852 68.8993 56.1891 68.831 56.1659C68.7626 56.1426 68.7152 56.0999 68.689 56.0379L68.1366 54.9138C68.0682 54.7742 68.1076 54.6606 68.255 54.5727C68.4022 54.5003 68.5548 54.428 68.7126 54.3556C68.8494 54.2935 68.9979 54.229 69.1584 54.1618C69.3188 54.0947 69.4753 54.0326 69.6279 53.9757C69.7173 53.9447 69.8133 53.9111 69.9159 53.8749C70.0184 53.8388 70.1381 53.8039 70.2748 53.7702C70.4116 53.7367 70.5694 53.7095 70.7483 53.6888C70.9271 53.6683 71.14 53.6578 71.3874 53.6578C72.0659 53.6578 72.6471 53.7768 73.1311 54.0144C73.6097 54.2575 73.9701 54.5933 74.2121 55.0223C74.454 55.4514 74.575 55.9631 74.575 56.5574C74.575 57.0795 74.4408 57.573 74.1726 58.0382C73.9044 58.5034 73.5098 58.984 72.9891 59.4801L71.2059 61.2013H74.4804C74.5539 61.2013 74.6144 61.2245 74.6618 61.2711Z" fill="#333333"/>
</svg>
