<svg width="176" height="31" viewBox="0 0 176 31" fill="none" xmlns="http://www.w3.org/2000/svg">
<mask id="mask0" mask-type="alpha" maskUnits="userSpaceOnUse" x="0" y="0" width="27" height="31">
<path fill-rule="evenodd" clip-rule="evenodd" d="M0 0.0303497H26.2789V30.2114H0V0.0303497Z" fill="white"/>
</mask>
<g mask="url(#mask0)">
<path fill-rule="evenodd" clip-rule="evenodd" d="M0.233892 5.25045L17.3103 15.1281L0.295722 24.9645C-0.0437516 25.1828 0.00315218 25.5301 0.00315218 25.5301L0.033146 29.9234C0.033146 29.9234 0.117223 30.3868 0.53605 30.138L26.0792 15.4174C26.0792 15.4174 26.2788 15.3109 26.2788 15.127C26.2788 14.9429 26.0792 14.839 26.0792 14.839L0.551732 0.110993C-0.121452 -0.226776 0.033146 0.605737 0.033146 0.605737L0.00315218 4.66322C0.00315218 4.66322 -0.0456882 5.11507 0.233892 5.25045Z" fill="#FFD200"/>
</g>
<path fill-rule="evenodd" clip-rule="evenodd" d="M43.0519 16.7145C43.3482 16.3749 43.4965 15.8747 43.4965 15.2139C43.4965 14.5532 43.3482 14.0531 43.0519 13.7133C42.7555 13.3774 42.3184 13.2094 41.7405 13.2094H40.9403V17.2241H41.7405C42.3221 17.2241 42.7592 17.0543 43.0519 16.7145ZM44.5804 13.4109C44.8285 13.9224 44.9527 14.5234 44.9527 15.2139C44.9527 15.9045 44.8285 16.5037 44.5804 17.0113C44.3359 17.5116 43.982 17.8904 43.519 18.1479C43.0559 18.4093 42.5002 18.5399 41.8519 18.5399H39.7403C39.6884 18.5399 39.6439 18.5213 39.6069 18.4839C39.5699 18.4466 39.5514 18.4019 39.5514 18.3495V12.0839C39.5514 12.0317 39.5699 11.9869 39.6069 11.9495C39.6439 11.9123 39.6884 11.8935 39.7403 11.8935H41.8519C42.4965 11.8935 43.0522 12.0223 43.519 12.2799C43.9858 12.5412 44.3395 12.9182 44.5804 13.4109Z" fill="#333333"/>
<path fill-rule="evenodd" clip-rule="evenodd" d="M50.1877 13.1948V14.468H52.3857C52.4379 14.468 52.4828 14.4867 52.5202 14.5241C52.5576 14.5615 52.5763 14.6063 52.5763 14.6587V15.5785C52.5763 15.6309 52.5576 15.6758 52.5202 15.7131C52.4828 15.7506 52.4379 15.7692 52.3857 15.7692H50.1877V17.2387H53.2996C53.3519 17.2387 53.3968 17.2574 53.4342 17.2948C53.4715 17.3322 53.4902 17.3771 53.4902 17.4294V18.3492C53.4902 18.4017 53.4715 18.4465 53.4342 18.4839C53.3968 18.5213 53.3519 18.5399 53.2996 18.5399H48.9758C48.9236 18.5399 48.8789 18.5213 48.8417 18.4839C48.8044 18.4465 48.7859 18.4017 48.7859 18.3492V12.0842C48.7859 12.0319 48.8044 11.9871 48.8417 11.9496C48.8789 11.9123 48.9236 11.8935 48.9758 11.8935H53.2996C53.3519 11.8935 53.3968 11.9123 53.4342 11.9496C53.4715 11.9871 53.4902 12.0319 53.4902 12.0842V13.0041C53.4902 13.0565 53.4715 13.1013 53.4342 13.1387C53.3968 13.1761 53.3519 13.1948 53.2996 13.1948H50.1877Z" fill="#333333"/>
<path fill-rule="evenodd" clip-rule="evenodd" d="M60.135 18.7944L56.6519 12.132C56.6253 12.0835 56.6195 12.045 56.6348 12.017C56.6499 11.9889 56.6727 11.9656 56.7032 11.9468C56.7374 11.9282 56.7773 11.9151 56.8229 11.9075L57.9402 11.8963C57.9668 11.8926 57.9934 11.8926 58.0201 11.8963C58.0428 11.9039 58.0665 11.9141 58.0913 11.9272C58.116 11.9404 58.1398 11.9674 58.1625 12.0086L60.2775 16.2686L62.4038 12.0198C62.4228 11.9787 62.4466 11.9496 62.4751 11.9328C62.5036 11.916 62.5293 11.9057 62.5521 11.9019C62.5786 11.8982 62.6052 11.9001 62.6319 11.9075H63.7948C63.8328 11.9225 63.8651 11.9412 63.8917 11.9637C63.9145 11.9825 63.9306 12.0086 63.9402 12.0422C63.9496 12.0759 63.943 12.1152 63.9203 12.1601L60.4143 18.7944C60.4067 18.8092 60.3953 18.8243 60.3801 18.8393C60.3687 18.8505 60.3544 18.8617 60.3374 18.8729C60.3203 18.8842 60.3003 18.8897 60.2775 18.8897V18.8729V18.8897C60.2509 18.8897 60.2291 18.8842 60.2119 18.8729C60.1948 18.8617 60.1806 18.8505 60.1692 18.8393C60.154 18.8243 60.1426 18.8092 60.135 18.7944Z" fill="#333333"/>
<path fill-rule="evenodd" clip-rule="evenodd" d="M78.0424 17.9628C78.0614 18.016 78.0624 18.0625 78.0453 18.1024C78.0281 18.1423 77.9872 18.1794 77.9225 18.2135C77.7208 18.3085 77.5001 18.3921 77.2603 18.4641C77.0548 18.5288 76.8111 18.5867 76.5295 18.638C76.2479 18.6892 75.9416 18.7148 75.6104 18.7148C74.9825 18.7148 74.4325 18.5724 73.9605 18.2876C73.4924 18.0027 73.1271 17.5963 72.8645 17.0684C72.6094 16.5442 72.4819 15.9232 72.4819 15.2054C72.4819 14.4875 72.6094 13.8665 72.8645 13.3423C73.1271 12.8182 73.4924 12.4137 73.9605 12.1288C74.2003 11.9846 74.4553 11.8801 74.7256 11.8155C74.9957 11.7509 75.2888 11.7186 75.6047 11.7186C76.0005 11.7186 76.384 11.7605 76.755 11.844C77.1262 11.9276 77.5152 12.0511 77.9225 12.2143C77.9758 12.2334 78.0139 12.2656 78.0367 12.3111C78.0595 12.3567 78.0614 12.4061 78.0424 12.4593L77.7341 13.3423C77.715 13.3956 77.6827 13.4335 77.6371 13.4563C77.5914 13.4791 77.5419 13.4811 77.4887 13.462C77.3288 13.405 77.1841 13.3557 77.0548 13.3139C76.9443 13.276 76.8378 13.2408 76.7351 13.2085C76.6323 13.1762 76.5657 13.1563 76.5353 13.1487C76.2536 13.0841 75.9624 13.0518 75.6618 13.0518C75.1252 13.0518 74.7103 13.2361 74.4173 13.6044C74.1242 13.9691 73.9777 14.5028 73.9777 15.2054C73.9777 15.9118 74.1242 16.4474 74.4173 16.812C74.7141 17.1804 75.1289 17.3646 75.6618 17.3646C75.8178 17.3646 75.9681 17.357 76.1128 17.3418C76.2574 17.3267 76.3983 17.3019 76.5353 17.2678C76.5885 17.2563 76.6684 17.2335 76.775 17.1994C76.8815 17.1652 76.9881 17.131 77.0948 17.0968C77.2203 17.0551 77.3497 17.0095 77.4829 16.9601C77.5362 16.9412 77.5866 16.943 77.6342 16.9658C77.6818 16.9886 77.715 17.0266 77.7341 17.0798L78.0424 17.9628Z" fill="#333333"/>
<path fill-rule="evenodd" clip-rule="evenodd" d="M87.0608 11.9495C87.0987 11.9869 87.1177 12.0317 87.1177 12.0839V18.3495C87.1177 18.4019 87.0987 18.4466 87.0608 18.4839C87.0228 18.5213 86.9772 18.5399 86.924 18.5399H85.887C85.8338 18.5399 85.7883 18.5213 85.7503 18.4839C85.7123 18.4466 85.6933 18.4019 85.6933 18.3495V15.7514H83.1408V18.3495C83.1408 18.4019 83.1218 18.4466 83.0839 18.4839C83.0458 18.5213 83.0003 18.5399 82.9471 18.5399H81.9101C81.8569 18.5399 81.8114 18.5213 81.7734 18.4839C81.7354 18.4466 81.7164 18.4019 81.7164 18.3495V12.0839C81.7164 12.0317 81.7354 11.9869 81.7734 11.9495C81.8114 11.9123 81.8569 11.8935 81.9101 11.8935H82.9471C83.0003 11.8935 83.0458 11.9123 83.0839 11.9495C83.1218 11.9869 83.1408 12.0317 83.1408 12.0839V14.4916H85.6933V12.0839C85.6933 12.0317 85.7123 11.9869 85.7503 11.9495C85.7883 11.9123 85.8338 11.8935 85.887 11.8935H86.924C86.9772 11.8935 87.0228 11.9123 87.0608 11.9495Z" fill="#333333"/>
<path fill-rule="evenodd" clip-rule="evenodd" d="M94.272 15.939L93.3827 14.1596L92.499 15.939H94.272ZM97.025 18.2686C97.0478 18.3173 97.0544 18.3584 97.0449 18.3921C97.0354 18.4258 97.0193 18.452 96.9965 18.4707C96.9699 18.4931 96.9375 18.5119 96.8996 18.5268H95.7367C95.71 18.5344 95.6834 18.5362 95.6568 18.5325C95.634 18.5287 95.6084 18.5184 95.5799 18.5015C95.5513 18.4847 95.5276 18.4558 95.5086 18.4145L94.9328 17.2694H91.8431L91.2673 18.4258C91.2445 18.467 91.2207 18.4951 91.196 18.51C91.1713 18.525 91.1476 18.5344 91.1248 18.538C91.0982 18.5418 91.0715 18.54 91.045 18.5325L89.9277 18.5268C89.8821 18.5193 89.8421 18.5063 89.808 18.4876C89.7775 18.4688 89.7547 18.4454 89.7395 18.4173C89.7243 18.3893 89.73 18.3509 89.7566 18.3023L93.2397 11.6392C93.2473 11.6243 93.2587 11.6093 93.2739 11.5943C93.3043 11.5644 93.3404 11.5475 93.3823 11.5437V11.5605V11.5437C93.4202 11.5475 93.4544 11.5644 93.4849 11.5943C93.5 11.6093 93.5114 11.6243 93.5191 11.6392L97.025 18.2686Z" fill="#333333"/>
<path fill-rule="evenodd" clip-rule="evenodd" d="M104.833 17.2576C104.871 17.295 104.89 17.3416 104.89 17.3976V18.3495C104.89 18.4018 104.871 18.4466 104.833 18.4839C104.795 18.5213 104.75 18.5399 104.697 18.5399H100.204C100.151 18.5399 100.106 18.5213 100.068 18.4839C100.03 18.4466 100.011 18.4018 100.011 18.3495V12.0839C100.011 12.0317 100.03 11.9869 100.068 11.9495C100.106 11.9123 100.151 11.8935 100.204 11.8935H101.238C101.291 11.8935 101.336 11.9123 101.374 11.9495C101.412 11.9869 101.431 12.0317 101.431 12.0839V17.2017H104.697C104.75 17.2017 104.795 17.2204 104.833 17.2576Z" fill="#333333"/>
<path fill-rule="evenodd" clip-rule="evenodd" d="M113.893 17.2576C113.931 17.295 113.95 17.3416 113.95 17.3976V18.3495C113.95 18.4018 113.931 18.4466 113.893 18.4839C113.855 18.5213 113.81 18.5399 113.757 18.5399H109.264C109.211 18.5399 109.166 18.5213 109.128 18.4839C109.09 18.4466 109.071 18.4018 109.071 18.3495V12.0839C109.071 12.0317 109.09 11.9869 109.128 11.9495C109.166 11.9123 109.211 11.8935 109.264 11.8935H110.298C110.351 11.8935 110.397 11.9123 110.434 11.9495C110.472 11.9869 110.491 12.0317 110.491 12.0839V17.2017H113.757C113.81 17.2017 113.855 17.2204 113.893 17.2576Z" fill="#333333"/>
<path fill-rule="evenodd" clip-rule="evenodd" d="M119.359 13.1948V14.468H121.557C121.609 14.468 121.654 14.4867 121.692 14.5241C121.729 14.5615 121.748 14.6063 121.748 14.6587V15.5785C121.748 15.6309 121.729 15.6758 121.692 15.7131C121.654 15.7506 121.609 15.7692 121.557 15.7692H119.359V17.2387H122.471C122.523 17.2387 122.568 17.2574 122.606 17.2948C122.643 17.3322 122.662 17.3771 122.662 17.4294V18.3492C122.662 18.4017 122.643 18.4465 122.606 18.4839C122.568 18.5213 122.523 18.5399 122.471 18.5399H118.147C118.095 18.5399 118.05 18.5213 118.013 18.4839C117.976 18.4465 117.957 18.4017 117.957 18.3492V12.0842C117.957 12.0319 117.976 11.987 118.013 11.9496C118.05 11.9123 118.095 11.8935 118.147 11.8935H122.471C122.523 11.8935 122.568 11.9123 122.606 11.9496C122.643 11.987 122.662 12.0319 122.662 12.0842V13.0041C122.662 13.0565 122.643 13.1014 122.606 13.1387C122.568 13.1761 122.523 13.1948 122.471 13.1948H119.359Z" fill="#333333"/>
<path fill-rule="evenodd" clip-rule="evenodd" d="M132.536 11.9679C132.574 12.0061 132.593 12.0519 132.593 12.1053V18.4402C132.593 18.5051 132.586 18.5556 132.57 18.5918C132.555 18.6281 132.538 18.6558 132.519 18.6747C132.5 18.6939 132.478 18.7072 132.451 18.7148H132.195C132.161 18.7148 132.124 18.7054 132.084 18.6862C132.045 18.6672 132.01 18.6443 131.979 18.6176C131.937 18.5909 131.9 18.5584 131.866 18.5203L127.914 14.6861V18.5088C127.914 18.5623 127.895 18.6081 127.858 18.6461C127.82 18.6843 127.774 18.7034 127.721 18.7034H126.688C126.635 18.7034 126.589 18.6843 126.552 18.6461C126.514 18.6081 126.495 18.5623 126.495 18.5088V12.174C126.495 12.1091 126.504 12.0595 126.523 12.0252C126.542 11.9908 126.563 11.9642 126.586 11.945C126.612 11.926 126.642 11.9108 126.677 11.8992H126.75C126.773 11.8992 126.8 11.8984 126.833 11.8964C126.865 11.8945 126.898 11.8935 126.932 11.8935C126.966 11.8935 127.002 11.9041 127.04 11.9251C127.078 11.9461 127.114 11.9699 127.148 11.9966C127.186 12.0271 127.223 12.0595 127.261 12.0939L131.174 15.8994V12.1053C131.174 12.0519 131.193 12.0061 131.231 11.9679C131.269 11.9298 131.314 11.9108 131.367 11.9108H132.399C132.452 11.9108 132.498 11.9298 132.536 11.9679Z" fill="#333333"/>
<path fill-rule="evenodd" clip-rule="evenodd" d="M141.299 17.7771C141.299 17.8719 141.291 17.9476 141.274 18.0044C141.257 18.0613 141.197 18.1163 141.095 18.1693C140.765 18.3511 140.394 18.4857 139.981 18.5728C139.568 18.6674 139.129 18.7148 138.663 18.7148C138.042 18.7148 137.496 18.5728 137.027 18.2886C136.561 18.0044 136.199 17.5991 135.942 17.0724C135.684 16.5533 135.555 15.9338 135.555 15.2139C135.555 14.8578 135.586 14.5244 135.649 14.2136C135.711 13.903 135.809 13.6169 135.942 13.3555C136.195 12.8326 136.557 12.4272 137.027 12.1392C137.5 11.8588 138.046 11.7186 138.663 11.7186C138.864 11.7186 139.061 11.73 139.254 11.7527C139.447 11.7755 139.64 11.8077 139.833 11.8493C139.962 11.8797 140.093 11.9138 140.225 11.9517C140.358 11.9896 140.483 12.0284 140.6 12.0682C140.718 12.1079 140.821 12.1459 140.91 12.1819C140.999 12.2179 141.064 12.2472 141.106 12.2699C141.144 12.2965 141.17 12.3296 141.186 12.3694C141.201 12.4092 141.201 12.4499 141.186 12.4916L140.879 13.3725C140.86 13.4256 140.828 13.4634 140.782 13.4861C140.737 13.5089 140.688 13.5109 140.635 13.4919C140.422 13.4161 140.206 13.346 139.987 13.2815C139.797 13.2286 139.59 13.1793 139.365 13.1338C139.139 13.0884 138.924 13.0656 138.72 13.0656C138.186 13.0656 137.771 13.2494 137.476 13.6169C137.184 13.9844 137.038 14.5168 137.038 15.2139C137.038 15.9111 137.186 16.4435 137.481 16.8109C137.773 17.1823 138.186 17.3679 138.72 17.3679C138.924 17.3679 139.123 17.3528 139.316 17.3225C139.51 17.2922 139.697 17.2486 139.879 17.1917V16.0835H138.498C138.445 16.0835 138.399 16.0645 138.359 16.0266C138.319 15.9888 138.299 15.9433 138.299 15.8902V14.998C138.299 14.9449 138.319 14.8995 138.359 14.8616C138.399 14.8237 138.445 14.8047 138.498 14.8047H141.112C141.165 14.8047 141.21 14.8237 141.248 14.8616C141.286 14.8995 141.305 14.9449 141.305 14.998L141.299 17.7771Z" fill="#333333"/>
<mask id="mask1" mask-type="alpha" maskUnits="userSpaceOnUse" x="145" y="11" width="5" height="8">
<path fill-rule="evenodd" clip-rule="evenodd" d="M145.162 11.9242H149.837V18.6863H145.162V11.9242Z" fill="white"/>
</mask>
<g mask="url(#mask1)">
<path fill-rule="evenodd" clip-rule="evenodd" d="M146.555 13.2481V14.5434H148.739C148.791 14.5434 148.835 14.5625 148.873 14.6005C148.91 14.6386 148.928 14.6842 148.928 14.7374V15.6733C148.928 15.7266 148.91 15.7723 148.873 15.8102C148.835 15.8484 148.791 15.8673 148.739 15.8673H146.555V17.3624H149.647C149.699 17.3624 149.744 17.3815 149.781 17.4195C149.818 17.4576 149.837 17.5032 149.837 17.5565V18.4923C149.837 18.5456 149.818 18.5913 149.781 18.6293C149.744 18.6673 149.699 18.6863 149.647 18.6863H145.35C145.298 18.6863 145.254 18.6673 145.217 18.6293C145.18 18.5913 145.162 18.5456 145.162 18.4923V12.1182C145.162 12.0649 145.18 12.0193 145.217 11.9812C145.254 11.9432 145.298 11.9242 145.35 11.9242H149.647C149.699 11.9242 149.744 11.9432 149.781 11.9812C149.818 12.0193 149.837 12.0649 149.837 12.1182V13.0541C149.837 13.1074 149.818 13.153 149.781 13.191C149.744 13.2291 149.699 13.2481 149.647 13.2481H146.555Z" fill="#333333"/>
</g>
<path fill-rule="evenodd" clip-rule="evenodd" d="M166.171 17.4544C166.204 17.4902 166.221 17.5324 166.221 17.5812V18.5344C166.221 18.5833 166.204 18.6256 166.171 18.6613C166.137 18.697 166.095 18.7148 166.043 18.7148H161.897C161.845 18.7148 161.802 18.697 161.769 18.6613C161.736 18.6256 161.719 18.5833 161.719 18.5344V17.5812C161.719 17.5324 161.736 17.4902 161.769 17.4544C161.802 17.4187 161.845 17.4008 161.897 17.4008H163.303V13.8309L162.041 14.5697C161.997 14.596 161.951 14.6017 161.905 14.5866C161.859 14.5717 161.823 14.5434 161.797 14.502L161.363 13.7463C161.341 13.7012 161.336 13.6552 161.349 13.6081C161.362 13.5612 161.389 13.5245 161.43 13.4981L163.587 12.2348L164.38 11.7781C164.447 11.7405 164.501 11.7208 164.542 11.7189C164.582 11.717 164.614 11.7273 164.636 11.7499C164.659 11.7725 164.674 11.8025 164.681 11.8401C164.688 11.8777 164.692 11.9172 164.692 11.9585V17.4008H166.043C166.095 17.4008 166.137 17.4187 166.171 17.4544Z" fill="#333333"/>
<path fill-rule="evenodd" clip-rule="evenodd" d="M175.926 17.4524C175.961 17.4864 175.978 17.5299 175.978 17.5827V18.5337C175.978 18.5865 175.961 18.6299 175.926 18.6639C175.892 18.6978 175.848 18.7148 175.795 18.7148H170.543C170.516 18.7148 170.491 18.7073 170.468 18.6922C170.446 18.6771 170.428 18.6563 170.417 18.6299C170.405 18.6035 170.401 18.5752 170.403 18.545C170.405 18.5148 170.419 18.4827 170.446 18.4488L173.523 15.4089C173.638 15.292 173.739 15.1881 173.827 15.0975C173.914 15.007 173.987 14.9297 174.044 14.8655C174.162 14.7259 174.254 14.5938 174.319 14.4692C174.383 14.3333 174.416 14.1995 174.416 14.0673C174.416 13.8032 174.338 13.5975 174.181 13.4503C174.017 13.3069 173.79 13.2352 173.501 13.2352C173.287 13.2352 173.058 13.2616 172.814 13.3144C172.806 13.322 172.795 13.3295 172.78 13.337C172.711 13.356 172.623 13.3861 172.517 13.4276C172.41 13.4692 172.307 13.5107 172.208 13.5522C172.089 13.6013 171.969 13.656 171.847 13.7163C171.798 13.739 171.748 13.7418 171.698 13.7249C171.649 13.7078 171.615 13.6767 171.595 13.6314L171.195 12.8106C171.145 12.7087 171.174 12.6258 171.281 12.5615C171.388 12.5087 171.498 12.4559 171.613 12.403C171.712 12.3577 171.819 12.3106 171.936 12.2615C172.052 12.2125 172.166 12.1672 172.276 12.1257C172.341 12.103 172.411 12.0785 172.485 12.0521C172.559 12.0257 172.646 12.0002 172.745 11.9756C172.845 11.9511 172.959 11.9313 173.089 11.9162C173.218 11.9012 173.373 11.8935 173.552 11.8935C174.044 11.8935 174.465 11.9804 174.816 12.1539C175.163 12.3314 175.425 12.5766 175.6 12.8899C175.776 13.2032 175.863 13.5768 175.863 14.0107C175.863 14.3919 175.766 14.7523 175.572 15.0919C175.377 15.4316 175.091 15.7825 174.713 16.1448L173.421 17.4015H175.795C175.848 17.4015 175.892 17.4185 175.926 17.4524Z" fill="#333333"/>
<rect x="153.501" y="17.4905" width="4.53012" height="1.22433" fill="#333333"/>
<rect x="65.5125" y="17.4905" width="4.53009" height="1.22433" fill="#333333"/>
</svg>
