<svg width="19" height="18" viewBox="0 0 19 18" fill="none" xmlns="http://www.w3.org/2000/svg">
<g opacity="0.397991">
<path fill-rule="evenodd" clip-rule="evenodd" d="M7.95923 1.69019C8.54132 1.55859 9.11066 1.49268 9.66736 1.49268C11.118 1.49268 12.2302 1.84619 13.0005 2.55298C13.7709 3.25977 14.1566 4.24023 14.1566 5.49683C14.1566 6.54102 13.8725 7.36328 13.3054 7.96143C12.7372 8.55859 12.1921 9.01929 11.0186 9.34277L10.9505 11.4678C10.9355 11.655 10.8454 11.7925 10.6802 11.8789C10.5151 11.9668 9.90063 12.0095 9.48718 12.0095C9.17377 12.0095 9.13904 11.9849 9.06818 11.9348C9.04553 11.9187 9.01923 11.9001 8.979 11.8789C8.81384 11.7925 8.72375 11.655 8.70874 11.4678L8.71802 7.95581C8.703 7.62549 8.81964 7.43262 9.06793 7.38062C9.06793 7.38062 10.7911 7.23511 11.3893 6.93115C12.0026 6.62061 12.1251 5.89868 12.1251 5.37915C12.1251 4.81543 11.9495 4.38818 11.5984 4.09814C11.2473 3.80713 10.7345 3.66162 10.0577 3.66162C9.19958 3.66162 8.28027 3.86133 7.30206 4.26099C7.22351 4.29443 7.1369 4.31299 7.04102 4.31299C6.8678 4.31299 6.70612 4.22998 6.55365 4.06592C6.49414 4.00146 6.43195 3.98145 6.37067 3.96191C6.27496 3.93115 6.1814 3.90112 6.10321 3.70312C5.96808 3.36475 5.89996 3.09106 5.89996 2.87964C5.89996 2.57251 6.04315 2.35303 6.32843 2.22607C6.83197 2.00073 7.37598 1.82178 7.95923 1.69019ZM11.0884 14.1899H8.77856V16.4998H11.0884V14.1899Z" fill="black"/>
<mask id="mask0" mask-type="alpha" maskUnits="userSpaceOnUse" x="5" y="1" width="10" height="16">
<path fill-rule="evenodd" clip-rule="evenodd" d="M7.95923 1.69019C8.54132 1.55859 9.11066 1.49268 9.66736 1.49268C11.118 1.49268 12.2302 1.84619 13.0005 2.55298C13.7709 3.25977 14.1566 4.24023 14.1566 5.49683C14.1566 6.54102 13.8725 7.36328 13.3054 7.96143C12.7372 8.55859 12.1921 9.01929 11.0186 9.34277L10.9505 11.4678C10.9355 11.655 10.8454 11.7925 10.6802 11.8789C10.5151 11.9668 9.90063 12.0095 9.48718 12.0095C9.17377 12.0095 9.13904 11.9849 9.06818 11.9348C9.04553 11.9187 9.01923 11.9001 8.979 11.8789C8.81384 11.7925 8.72375 11.655 8.70874 11.4678L8.71802 7.95581C8.703 7.62549 8.81964 7.43262 9.06793 7.38062C9.06793 7.38062 10.7911 7.23511 11.3893 6.93115C12.0026 6.62061 12.1251 5.89868 12.1251 5.37915C12.1251 4.81543 11.9495 4.38818 11.5984 4.09814C11.2473 3.80713 10.7345 3.66162 10.0577 3.66162C9.19958 3.66162 8.28027 3.86133 7.30206 4.26099C7.22351 4.29443 7.1369 4.31299 7.04102 4.31299C6.8678 4.31299 6.70612 4.22998 6.55365 4.06592C6.49414 4.00146 6.43195 3.98145 6.37067 3.96191C6.27496 3.93115 6.1814 3.90112 6.10321 3.70312C5.96808 3.36475 5.89996 3.09106 5.89996 2.87964C5.89996 2.57251 6.04315 2.35303 6.32843 2.22607C6.83197 2.00073 7.37598 1.82178 7.95923 1.69019ZM11.0884 14.1899H8.77856V16.4998H11.0884V14.1899Z" fill="white"/>
</mask>
<g mask="url(#mask0)">
<rect x="0.5" width="300" height="300" fill="#212121"/>
</g>
</g>
</svg>
