<svg width="24" height="24" viewBox="0 0 24 24" fill="none" xmlns="http://www.w3.org/2000/svg">
<path d="M20 4H4C2.9 4 2.01 4.9 2.01 6L2 24L6 20H20C21.1 20 22 19.1 22 18V6C22 4.9 21.1 4 20 4Z" fill="black"/>
<mask id="mask-tbl" mask-type="alpha" maskUnits="userSpaceOnUse" x="2" y="4" width="20" height="20">
<path d="M20 4H4C2.9 4 2.01 4.9 2.01 6L2 24L6 20H20C21.1 20 22 19.1 22 18V6C22 4.9 21.1 4 20 4Z" fill="white"/>
</mask>
<g mask="url(#mask-tbl)">
<rect width="400" height="400" fill="#000000" />
</g>
</svg>
