<svg width="76" height="76" viewBox="0 0 76 76" fill="none" xmlns="http://www.w3.org/2000/svg">
<g filter="url(#filter0_ddd)">
<rect x="10" y="9" width="56" height="56" rx="28" fill="#FAFAFA"/>
</g>
<mask id="mask0" mask-type="alpha" maskUnits="userSpaceOnUse" x="10" y="9" width="56" height="56">
<rect x="10" y="9" width="56" height="56" rx="28" fill="white"/>
</mask>
<g mask="url(#mask0)">
<rect x="10" y="9" width="56" height="56" fill="#FFD200"/>
<mask id="mask1" mask-type="alpha" maskUnits="userSpaceOnUse" x="29" y="28" width="18" height="18">
<path fill-rule="evenodd" clip-rule="evenodd" d="M43 28H31C29.89 28 29 28.8999 29 30V44C29 45.1001 29.89 46 31 46H45C46.1 46 47 45.1001 47 44V32L43 28ZM38 44C36.34 44 35 42.6599 35 41C35 39.3401 36.34 38 38 38C39.66 38 41 39.3401 41 41C41 42.6599 39.66 44 38 44ZM31 34H41V30H31V34Z" fill="white"/>
</mask>
<g mask="url(#mask1)">
<rect x="26" y="25" width="400" height="400" fill="#F5F5F5"/>
</g>
</g>
<defs>
<filter id="filter0_ddd" x="0" y="0" width="76" height="76" filterUnits="userSpaceOnUse" color-interpolation-filters="sRGB">
<feFlood flood-opacity="0" result="BackgroundImageFix"/>
<feColorMatrix in="SourceAlpha" type="matrix" values="0 0 0 0 0 0 0 0 0 0 0 0 0 0 0 0 0 0 127 0"/>
<feOffset dy="2"/>
<feGaussianBlur stdDeviation="2"/>
<feColorMatrix type="matrix" values="0 0 0 0 0 0 0 0 0 0 0 0 0 0 0 0 0 0 0.2 0"/>
<feBlend mode="normal" in2="BackgroundImageFix" result="effect1_dropShadow"/>
<feColorMatrix in="SourceAlpha" type="matrix" values="0 0 0 0 0 0 0 0 0 0 0 0 0 0 0 0 0 0 127 0"/>
<feOffset dy="1"/>
<feGaussianBlur stdDeviation="5"/>
<feColorMatrix type="matrix" values="0 0 0 0 0 0 0 0 0 0 0 0 0 0 0 0 0 0 0.12 0"/>
<feBlend mode="normal" in2="effect1_dropShadow" result="effect2_dropShadow"/>
<feColorMatrix in="SourceAlpha" type="matrix" values="0 0 0 0 0 0 0 0 0 0 0 0 0 0 0 0 0 0 127 0"/>
<feOffset dy="4"/>
<feGaussianBlur stdDeviation="2.5"/>
<feColorMatrix type="matrix" values="0 0 0 0 0 0 0 0 0 0 0 0 0 0 0 0 0 0 0.14 0"/>
<feBlend mode="normal" in2="effect2_dropShadow" result="effect3_dropShadow"/>
<feBlend mode="normal" in="SourceGraphic" in2="effect3_dropShadow" result="shape"/>
</filter>
</defs>
</svg>
