<svg width="24" height="24" viewBox="0 0 24 24" fill="none" xmlns="http://www.w3.org/2000/svg">
<path fill-rule="evenodd" clip-rule="evenodd" d="M20.875 8.15222L21 17L23 19.3247V21H1V19.3247L3 17L2.875 8.15222C2.875 4.31219 6.28751 2.84778 9.875 2L10 1.87012C10 0.835327 10.9625 0 12 0C13.0375 0 13.875 0.835327 13.875 1.87012V2C17.45 2.84778 20.875 4.32468 20.875 8.15222ZM14.2778 22C14.2778 23.1 13.2849 24 12.0714 24C10.8469 24 9.86508 23.1 9.86508 22H14.2778Z" fill="black"/>
<mask id="mask0" mask-type="alpha" maskUnits="userSpaceOnUse" x="1" y="0" width="22" height="24">
<path fill-rule="evenodd" clip-rule="evenodd" d="M20.875 8.15222L21 17L23 19.3247V21H1V19.3247L3 17L2.875 8.15222C2.875 4.31219 6.28751 2.84778 9.875 2L10 1.87012C10 0.835327 10.9625 0 12 0C13.0375 0 13.875 0.835327 13.875 1.87012V2C17.45 2.84778 20.875 4.32468 20.875 8.15222ZM14.2778 22C14.2778 23.1 13.2849 24 12.0714 24C10.8469 24 9.86508 23.1 9.86508 22H14.2778Z" fill="white"/>
</mask>
<g mask="url(#mask0)">
<rect width="400" height="400" fill="#FFD200"/>
</g>
</svg>
