<svg width="24" height="24" viewBox="0 0 24 24" fill="none" xmlns="http://www.w3.org/2000/svg">
<g id="Icon / Circle / Filled">
<mask id="mask0" mask-type="alpha" maskUnits="userSpaceOnUse" x="2" y="2" width="20" height="20">
<path id="Mask" fill-rule="evenodd" clip-rule="evenodd" d="M12 2C6.47998 2 2 6.48 2 12C2 17.52 6.47998 22 12 22C17.52 22 22 17.52 22 12C22 6.48 17.52 2 12 2ZM12 5C13.6599 5 15 6.34 15 8C15 9.66 13.6599 11 12 11C10.3401 11 9 9.66 9 8C9 6.34 10.3401 5 12 5ZM6 15.98C7.29004 17.92 9.5 19.2 12 19.2C14.5 19.2 16.71 17.92 18 15.98C17.97 13.99 13.99 12.9 12 12.9C10 12.9 6.03003 13.99 6 15.98Z" fill="white"/>
</mask>
<g mask="url(#mask0)">
<g id="&#226;&#134;&#179; Icon Color">
<rect id="Rectangle" width="400" height="400" fill="#212121"/>
</g>
</g>
</g>
</svg>
