<svg width="24" height="24" fill="none" xmlns="http://www.w3.org/2000/svg"><path fill-rule="evenodd" clip-rule="evenodd" d="M9.946 2.254a10.305 10.305 0 0 1 2.277-.264c1.934 0 3.417.472 4.444 1.414 1.027.942 1.542 2.25 1.542 3.925 0 1.392-.379 2.489-1.135 3.286-.758.797-1.485 1.411-3.05 1.842l-.09 2.834a.64.64 0 0 1-.36.548c-.22.117-1.04.174-1.591.174-.418 0-.464-.033-.559-.1a.978.978 0 0 0-.119-.074.64.64 0 0 1-.36-.548l.012-4.683c-.02-.44.136-.698.467-.767 0 0 2.298-.194 3.095-.6.818-.413.981-1.376.981-2.069 0-.751-.234-1.321-.702-1.708-.468-.388-1.152-.582-2.054-.582-1.144 0-2.37.267-3.675.8a.877.877 0 0 1-.348.069c-.23 0-.446-.111-.65-.33-.079-.086-.162-.112-.243-.139-.128-.04-.253-.08-.357-.344-.18-.451-.271-.816-.271-1.098 0-.41.191-.702.571-.872a11.53 11.53 0 0 1 2.175-.714zm4.172 16.666h-3.08V22h3.08v-3.08z" fill="#000"/><mask id="a" maskUnits="userSpaceOnUse" x="7" y="1" width="12" height="21"><path fill-rule="evenodd" clip-rule="evenodd" d="M9.946 2.254a10.305 10.305 0 0 1 2.277-.264c1.934 0 3.417.472 4.444 1.414 1.027.942 1.542 2.25 1.542 3.925 0 1.392-.379 2.489-1.135 3.286-.758.797-1.485 1.411-3.05 1.842l-.09 2.834a.64.64 0 0 1-.36.548c-.22.117-1.04.174-1.591.174-.418 0-.464-.033-.559-.1a.978.978 0 0 0-.119-.074.64.64 0 0 1-.36-.548l.012-4.683c-.02-.44.136-.698.467-.767 0 0 2.298-.194 3.095-.6.818-.413.981-1.376.981-2.069 0-.751-.234-1.321-.702-1.708-.468-.388-1.152-.582-2.054-.582-1.144 0-2.37.267-3.675.8a.877.877 0 0 1-.348.069c-.23 0-.446-.111-.65-.33-.079-.086-.162-.112-.243-.139-.128-.04-.253-.08-.357-.344-.18-.451-.271-.816-.271-1.098 0-.41.191-.702.571-.872a11.53 11.53 0 0 1 2.175-.714zm4.172 16.666h-3.08V22h3.08v-3.08z" fill="#fff"/></mask><g mask="url(#a)"><path fill="#F5F5F5" d="M0 0h400v400H0z"/></g></svg>