<svg width="76" height="76" fill="none" xmlns="http://www.w3.org/2000/svg"><rect x="10" y="9" width="56" height="56" rx="28" fill="#FAFAFA" filter="url(#filter0_ddd)"/><mask id="a" maskUnits="userSpaceOnUse" x="10" y="9" width="56" height="56"><rect x="10" y="9" width="56" height="56" rx="28" fill="#fff"/></mask><g mask="url(#a)"><path fill="#FFD200" d="M10 9h56v56H10z"/><mask id="b" maskUnits="userSpaceOnUse" x="29" y="28" width="18" height="18"><path fill-rule="evenodd" clip-rule="evenodd" d="M43 28H31a2 2 0 0 0-2 2v14a2 2 0 0 0 2 2h14c1.1 0 2-.9 2-2V32l-4-4zm-5 16c-1.66 0-3-1.34-3-3s1.34-3 3-3 3 1.34 3 3-1.34 3-3 3zm-7-10h10v-4H31v4z" fill="#fff"/></mask><g mask="url(#b)"><path fill="#F5F5F5" d="M26 25h400v400H26z"/></g></g><defs><filter id="filter0_ddd" x="0" y="0" width="76" height="76" filterUnits="userSpaceOnUse" color-interpolation-filters="sRGB"><feFlood flood-opacity="0" result="BackgroundImageFix"/><feColorMatrix in="SourceAlpha" values="0 0 0 0 0 0 0 0 0 0 0 0 0 0 0 0 0 0 127 0"/><feOffset dy="2"/><feGaussianBlur stdDeviation="2"/><feColorMatrix values="0 0 0 0 0 0 0 0 0 0 0 0 0 0 0 0 0 0 0.2 0"/><feBlend in2="BackgroundImageFix" result="effect1_dropShadow"/><feColorMatrix in="SourceAlpha" values="0 0 0 0 0 0 0 0 0 0 0 0 0 0 0 0 0 0 127 0"/><feOffset dy="1"/><feGaussianBlur stdDeviation="5"/><feColorMatrix values="0 0 0 0 0 0 0 0 0 0 0 0 0 0 0 0 0 0 0.12 0"/><feBlend in2="effect1_dropShadow" result="effect2_dropShadow"/><feColorMatrix in="SourceAlpha" values="0 0 0 0 0 0 0 0 0 0 0 0 0 0 0 0 0 0 127 0"/><feOffset dy="4"/><feGaussianBlur stdDeviation="2.5"/><feColorMatrix values="0 0 0 0 0 0 0 0 0 0 0 0 0 0 0 0 0 0 0.14 0"/><feBlend in2="effect2_dropShadow" result="effect3_dropShadow"/><feBlend in="SourceGraphic" in2="effect3_dropShadow" result="shape"/></filter></defs></svg>