<svg width="24" height="24" fill="none" xmlns="http://www.w3.org/2000/svg"><path fill-rule="evenodd" clip-rule="evenodd" d="M20.875 8.152L21 17l2 2.325V21H1v-1.675L3 17l-.125-8.848c0-3.84 3.413-5.304 7-6.152L10 1.87C10 .835 10.963 0 12 0a1.87 1.87 0 0 1 1.875 1.87V2c3.575.848 7 2.325 7 6.152zM14.278 22c0 1.1-.993 2-2.207 2-1.224 0-2.206-.9-2.206-2h4.413z" fill="#000"/><mask id="a" maskUnits="userSpaceOnUse" x="1" y="0" width="22" height="24"><path fill-rule="evenodd" clip-rule="evenodd" d="M20.875 8.152L21 17l2 2.325V21H1v-1.675L3 17l-.125-8.848c0-3.84 3.413-5.304 7-6.152L10 1.87C10 .835 10.963 0 12 0a1.87 1.87 0 0 1 1.875 1.87V2c3.575.848 7 2.325 7 6.152zM14.278 22c0 1.1-.993 2-2.207 2-1.224 0-2.206-.9-2.206-2h4.413z" fill="#fff"/></mask><g mask="url(#a)"><path fill="#FFD200" d="M0 0h400v400H0z"/></g></svg>